<svg id="Capa_1" enable-background="new 0 0 512.304 512.304" height="512" viewBox="0 0 512.304 512.304" width="512" xmlns="http://www.w3.org/2000/svg"><g><path d="m101.988 155.6v29.962h30v-29.962c0-68.91 55.785-125.028 124.566-125.586l13.536-15.134-13.536-14.867c-85.323.559-154.566 70.134-154.566 155.587z" fill="#98f9fd"/><path d="m257.588 0c-.346 0-.689.011-1.034.013v30c.345-.003.688-.013 1.034-.013 69.256 0 125.6 56.344 125.6 125.6v21.774l30 7.344v-29.118c0-85.798-69.802-155.6-155.6-155.6z" fill="#74dbf2"/><g><path d="m101.891 190.814c0 24.592 20.007 44.598 44.599 44.598h38.62v-89.197h-38.62c-24.592 0-44.599 20.007-44.599 44.599z" fill="#4a6d77"/><path d="m413.076 190.814c0 24.592-20.007 44.598-44.598 44.598h-38.62v-89.197h38.62c24.592 0 44.598 20.007 44.598 44.599z" fill="#405e66"/></g><path d="m256.554 70.863h-26.644c-35.898 0-65 29.102-65 65v10.352l91.644 23.133 5.226-50.958z" fill="#fc8b27"/><path d="m350.169 70.863h-93.615v98.485l93.615-23.133z" fill="#fc612a"/><g><path d="m256.554 344.264h-106.537c-44.239 0-80.102 35.863-80.102 80.102v87.634h63.911l15-12.074 15 12.074h92.728l31.371-50.195z" fill="#9defaf"/><path d="m362.287 344.264h-105.733v167.736h95.124l13.603-12.661 16.397 12.661h60.71v-87.634c.001-44.239-35.862-80.102-80.101-80.102z" fill="#77cc90"/><g><g><g><path d="m133.826 451.865h30v60.439h-30z" fill="#77cc90"/></g><g><path d="m351.678 451.561h30v60.439h-30z" fill="#189f89"/></g></g></g><path d="m220.368 344.264 36.186 48.19 18.093-55.716-18.093-55.715h-36.186z" fill="#fcb9a6"/><path d="m292.741 344.264v-63.241h-36.187v111.431z" fill="#fcab96"/></g><g><path d="m164.91 146.215v65.251c0 50.747 41.021 92.086 91.644 92.617l18.093-68.671-18.093-89.197z" fill="#fec9b9"/></g><g><path d="m256.554 146.215v157.869l.007.007c51.523.534 93.607-41.223 93.607-92.625v-65.251z" fill="#fcb9a6"/></g></g></svg>