<svg height="391pt" viewBox="0 -1 391.5445 391" width="391pt" xmlns="http://www.w3.org/2000/svg"><path d="m381.292969 22.265625c13.667969 13.664063 13.667969 35.824219 0 49.488281l-17.679688 17.679688-61.230469-61.230469 17.679688-17.679687c13.667969-13.667969 35.832031-13.667969 49.5 0zm0 0" fill="#00acea"/><path d="m363.613281 89.433594-160.152343 160.160156h-.007813l-61.230469-61.230469 160.160156-160.160156zm0 0" fill="#00efd1"/><path d="m142.222656 188.363281 61.230469 61.230469-.570313.570312-84.691406 23.460938 23.460938-84.691406zm0 0" fill="#fedb41"/><path d="m330.589844 389.777344h-280.589844c-27.601562-.03125-49.96875-22.398438-50-50v-260.59375c.03125-27.601563 22.398438-49.96875 50-50h88.789062c5.523438 0 10 4.476562 10 10 0 5.523437-4.476562 10-10 10h-88.789062c-16.5625.019531-29.980469 13.441406-30 30v260.59375c.019531 16.558594 13.4375 29.980468 30 30h280.589844c16.5625-.019532 29.980468-13.441406 30-30v-88.792969c0-5.523437 4.476562-10 10-10 5.523437 0 10 4.476563 10 10v88.792969c-.03125 27.601562-22.398438 49.96875-50 50zm0 0" fill="#00acea"/></svg>